<svg xmlns="http://www.w3.org/2000/svg" xmlns:xlink="http://www.w3.org/1999/xlink" viewBox="0,0,256,256" width="50px" height="50px" fill-rule="nonzero"><g fill="#ffffff" fill-rule="nonzero" stroke="none" stroke-width="1" stroke-linecap="butt" stroke-linejoin="miter" stroke-miterlimit="10" stroke-dasharray="" stroke-dashoffset="0" font-family="none" font-weight="none" font-size="none" text-anchor="none" style="mix-blend-mode: normal"><g transform="scale(5.12,5.12)"><path d="M25,3c-11.41,0 -20.79062,8.68078 -21.89062,19.80078l11.19141,5.72852c1.13,-0.95 2.59922,-1.5293 4.19922,-1.5293h0.05078c0.39,-0.6 0.83859,-1.35086 1.30859,-2.13086c0.98,-1.61 2.08016,-3.43008 3.16016,-4.83008c0.24,-4.47 3.95047,-8.03906 8.48047,-8.03906c4.69,0 8.5,3.81 8.5,8.5c0,4.53 -3.56906,8.24047 -8.03906,8.48047c-1.4,1.08 -3.21008,2.18039 -4.83008,3.15039c-0.78,0.48 -1.53086,0.92836 -2.13086,1.31836v0.05078c0,3.59 -2.91,6.5 -6.5,6.5c-3.59,0 -6.5,-2.91 -6.5,-6.5c0,-0.17 0.00953,-0.33 0.01953,-0.5l-8.74023,-4.48047c1.69,10.48 10.7707,18.48047 21.7207,18.48047c12.15,0 22,-9.85 22,-22c0,-12.15 -9.85,-22 -22,-22zM31.5,14c-3.58,0 -6.5,2.92 -6.5,6.5c0,3.58 2.92,6.5 6.5,6.5c3.58,0 6.5,-2.92 6.5,-6.5c0,-3.58 -2.92,-6.5 -6.5,-6.5zM31.5,16c2.49,0 4.5,2.01 4.5,4.5c0,2.49 -2.01,4.5 -4.5,4.5c-2.49,0 -4.5,-2.01 -4.5,-4.5c0,-2.49 2.01,-4.5 4.5,-4.5zM18.5,29c-0.79,0 -1.53969,0.20031 -2.17969,0.57031l3.32031,1.69922c1.23,0.63 1.70984,2.14109 1.08984,3.37109c-0.45,0.86 -1.32047,1.35938 -2.23047,1.35938c-0.39,0 -0.77062,-0.08953 -1.14062,-0.26953l-3.33008,-1.71094c0.26,2.24 2.1607,3.98047 4.4707,3.98047c2.49,0 4.5,-2.01 4.5,-4.5c0,-2.49 -2.01,-4.5 -4.5,-4.5z"></path></g></g></svg>